# MagicaVoxel @ Ephtracy

# group
o 

# material
mtllib Casita.mtl
usemtl palette

# normals
vn -1 0 0
vn 1 0 0
vn 0 0 1
vn 0 0 -1
vn 0 -1 0
vn 0 1 0

# texcoords
vt 0.208984 0.5
vt 0.537109 0.5

# verts
v -2 0 2
v -2 0 -2
v -2 1.4 2
v -2 1.4 -2
v -1.4 0 2.1
v -1.4 0 2
v -1.4 0.1 2.1
v -1.4 0.1 2
v -0.7 0.1 2
v -0.7 0.1 1.4
v -0.7 1 2
v -0.7 1 1.4
v 1.4 0.1 1.4
v 1.4 0.1 -1.5
v 1.4 1.4 1.4
v 1.4 1.4 -1.5
v -1.4 0.1 2
v -1.4 0.1 -1.5
v -1.4 1 2
v -1.4 1 1.4
v -1.4 1.4 1.4
v -1.4 1.4 -1.5
v -0.7 0 2.1
v -0.7 0 2
v -0.7 0.1 2.1
v -0.7 0.1 2
v 2 0 2
v 2 0 -2
v 2 1.4 2
v 2 1.4 -2
v -1.4 0 2.1
v -1.4 0.1 2.1
v -0.7 0 2.1
v -0.7 0.1 2.1
v -2 0 2
v -2 1.4 2
v -1.4 0 2
v -1.4 0.1 2
v -1.4 1 2
v -0.7 0 2
v -0.7 0.1 2
v -0.7 1 2
v 2 0 2
v 2 1.4 2
v -1.4 0.1 -1.5
v -1.4 1.4 -1.5
v 1.4 0.1 -1.5
v 1.4 1.4 -1.5
v -1.4 1 1.4
v -1.4 1.4 1.4
v -0.7 0.1 1.4
v -0.7 1 1.4
v 1.4 0.1 1.4
v 1.4 1.4 1.4
v -2 0 -2
v -2 1.4 -2
v 2 0 -2
v 2 1.4 -2
v -1.4 0 2.1
v -0.7 0 2.1
v -2 0 2
v -1.4 0 2
v -0.7 0 2
v 2 0 2
v -2 0 -2
v 2 0 -2
v -1.4 1 2
v -0.7 1 2
v -1.4 1 1.4
v -0.7 1 1.4
v -1.4 0.1 2.1
v -0.7 0.1 2.1
v -1.4 0.1 2
v -0.7 0.1 2
v -0.7 0.1 1.4
v 1.4 0.1 1.4
v -1.4 0.1 -1.5
v 1.4 0.1 -1.5
v -2 1.4 2
v 2 1.4 2
v -1.4 1.4 1.4
v 1.4 1.4 1.4
v -1.4 1.4 -1.5
v 1.4 1.4 -1.5
v -2 1.4 -2
v 2 1.4 -2

# faces
f 3/1/1 2/1/1 1/1/1
f 4/1/1 2/1/1 3/1/1
f 7/2/1 6/2/1 5/2/1
f 8/2/1 6/2/1 7/2/1
f 11/1/1 10/1/1 9/1/1
f 12/1/1 10/1/1 11/1/1
f 15/1/1 14/1/1 13/1/1
f 16/1/1 14/1/1 15/1/1
f 17/1/2 18/1/2 19/1/2
f 19/1/2 18/1/2 20/1/2
f 20/1/2 18/1/2 21/1/2
f 21/1/2 18/1/2 22/1/2
f 23/2/2 24/2/2 25/2/2
f 25/2/2 24/2/2 26/2/2
f 27/1/2 28/1/2 29/1/2
f 29/1/2 28/1/2 30/1/2
f 33/2/3 32/2/3 31/2/3
f 34/2/3 32/2/3 33/2/3
f 37/1/3 36/1/3 35/1/3
f 38/1/3 36/1/3 37/1/3
f 39/1/3 36/1/3 38/1/3
f 42/1/3 36/1/3 39/1/3
f 43/1/3 41/1/3 40/1/3
f 43/1/3 42/1/3 41/1/3
f 44/1/3 36/1/3 42/1/3
f 44/1/3 42/1/3 43/1/3
f 47/1/3 46/1/3 45/1/3
f 48/1/3 46/1/3 47/1/3
f 49/1/4 50/1/4 52/1/4
f 51/1/4 52/1/4 53/1/4
f 52/1/4 50/1/4 54/1/4
f 53/1/4 52/1/4 54/1/4
f 55/1/4 56/1/4 57/1/4
f 57/1/4 56/1/4 58/1/4
f 62/2/5 60/2/5 59/2/5
f 63/2/5 60/2/5 62/2/5
f 65/1/5 62/1/5 61/1/5
f 65/1/5 64/1/5 63/1/5
f 65/1/5 63/1/5 62/1/5
f 66/1/5 64/1/5 65/1/5
f 69/1/5 68/1/5 67/1/5
f 70/1/5 68/1/5 69/1/5
f 71/2/6 72/2/6 73/2/6
f 73/2/6 72/2/6 74/2/6
f 73/1/6 74/1/6 75/1/6
f 73/1/6 75/1/6 77/1/6
f 75/1/6 76/1/6 77/1/6
f 77/1/6 76/1/6 78/1/6
f 79/1/6 80/1/6 81/1/6
f 81/1/6 80/1/6 82/1/6
f 79/1/6 81/1/6 83/1/6
f 82/1/6 80/1/6 84/1/6
f 79/1/6 83/1/6 85/1/6
f 83/1/6 84/1/6 85/1/6
f 84/1/6 80/1/6 86/1/6
f 85/1/6 84/1/6 86/1/6
