# MagicaVoxel @ Ephtracy

# group
o 

# material
mtllib Armario.mtl
usemtl palette

# normals
vn -1 0 0
vn 1 0 0
vn 0 0 1
vn 0 0 -1
vn 0 -1 0
vn 0 1 0

# texcoords
vt 0.232422 0.5
vt 0.537109 0.5

# verts
v -2 0 2
v -2 0 1.6
v -2 0 -1.6
v -2 0 -2
v -2 4 2
v -2 4 1.6
v -2 4 -1.6
v -2 4 -2
v -1.6 0 1.6
v -1.6 0 -1.6
v -1.6 4 1.6
v -1.6 4 -1.6
v 1.4 0.2 1.5
v 1.4 0.2 -1.6
v 1.4 3.8 1.5
v 1.4 3.8 -1.6
v 1.6 0 2
v 1.6 0 1.6
v 1.6 0 -1.6
v 1.6 0 -2
v 1.6 4 2
v 1.6 4 1.6
v 1.6 4 -1.6
v 1.6 4 -2
v -1.6 0 2
v -1.6 0 1.6
v -1.6 0 -1.6
v -1.6 0 -2
v -1.6 4 2
v -1.6 4 1.6
v -1.6 4 -1.6
v -1.6 4 -2
v -1.4 0.2 1.5
v -1.4 0.2 -1.6
v -1.4 3.8 1.5
v -1.4 3.8 -1.6
v 1.6 0 1.6
v 1.6 0 -1.6
v 1.6 4 1.6
v 1.6 4 -1.6
v 2 0 2
v 2 0 1.6
v 2 0 -1.6
v 2 0 -2
v 2 4 2
v 2 4 1.6
v 2 4 -1.6
v 2 4 -2
v -2 0 2
v -2 4 2
v -1.6 0 2
v -1.6 4 2
v 1.6 0 2
v 1.6 4 2
v 2 0 2
v 2 4 2
v -1.6 0 1.6
v -1.6 4 1.6
v 1.6 0 1.6
v 1.6 4 1.6
v -2 0 -1.6
v -2 4 -1.6
v -1.6 0 -1.6
v -1.6 4 -1.6
v 1.6 0 -1.6
v 1.6 4 -1.6
v 2 0 -1.6
v 2 4 -1.6
v -2 0 1.6
v -2 4 1.6
v -1.6 0 1.6
v -1.6 4 1.6
v 1.6 0 1.6
v 1.6 4 1.6
v 2 0 1.6
v 2 4 1.6
v -1.4 0.2 1.5
v -1.4 3.8 1.5
v 1.4 0.2 1.5
v 1.4 3.8 1.5
v -1.6 0 -1.6
v -1.6 4 -1.6
v -1.4 0.2 -1.6
v -1.4 3.8 -1.6
v 1.4 0.2 -1.6
v 1.4 3.8 -1.6
v 1.6 0 -1.6
v 1.6 4 -1.6
v -2 0 -2
v -2 4 -2
v -1.6 0 -2
v -1.6 4 -2
v 1.6 0 -2
v 1.6 4 -2
v 2 0 -2
v 2 4 -2
v -2 0 2
v -1.6 0 2
v 1.6 0 2
v 2 0 2
v -2 0 1.6
v -1.6 0 1.6
v 1.6 0 1.6
v 2 0 1.6
v -2 0 -1.6
v -1.6 0 -1.6
v 1.6 0 -1.6
v 2 0 -1.6
v -2 0 -2
v -1.6 0 -2
v 1.6 0 -2
v 2 0 -2
v -1.4 3.8 1.5
v 1.4 3.8 1.5
v -1.4 3.8 -1.6
v 1.4 3.8 -1.6
v -1.4 0.2 1.5
v 1.4 0.2 1.5
v -1.4 0.2 -1.6
v 1.4 0.2 -1.6
v -2 4 2
v -1.6 4 2
v 1.6 4 2
v 2 4 2
v -2 4 1.6
v -1.6 4 1.6
v 1.6 4 1.6
v 2 4 1.6
v -2 4 -1.6
v -1.6 4 -1.6
v 1.6 4 -1.6
v 2 4 -1.6
v -2 4 -2
v -1.6 4 -2
v 1.6 4 -2
v 2 4 -2

# faces
f 5/2/1 2/2/1 1/2/1
f 6/2/1 2/2/1 5/2/1
f 7/2/1 4/2/1 3/2/1
f 8/2/1 4/2/1 7/2/1
f 11/1/1 10/1/1 9/1/1
f 12/1/1 10/1/1 11/1/1
f 15/1/1 14/1/1 13/1/1
f 16/1/1 14/1/1 15/1/1
f 21/2/1 18/2/1 17/2/1
f 22/2/1 18/2/1 21/2/1
f 23/2/1 20/2/1 19/2/1
f 24/2/1 20/2/1 23/2/1
f 25/2/2 26/2/2 29/2/2
f 29/2/2 26/2/2 30/2/2
f 27/2/2 28/2/2 31/2/2
f 31/2/2 28/2/2 32/2/2
f 33/1/2 34/1/2 35/1/2
f 35/1/2 34/1/2 36/1/2
f 37/1/2 38/1/2 39/1/2
f 39/1/2 38/1/2 40/1/2
f 41/2/2 42/2/2 45/2/2
f 45/2/2 42/2/2 46/2/2
f 43/2/2 44/2/2 47/2/2
f 47/2/2 44/2/2 48/2/2
f 51/2/3 50/2/3 49/2/3
f 52/2/3 50/2/3 51/2/3
f 55/2/3 54/2/3 53/2/3
f 56/2/3 54/2/3 55/2/3
f 59/1/3 58/1/3 57/1/3
f 60/1/3 58/1/3 59/1/3
f 63/2/3 62/2/3 61/2/3
f 64/2/3 62/2/3 63/2/3
f 67/2/3 66/2/3 65/2/3
f 68/2/3 66/2/3 67/2/3
f 69/2/4 70/2/4 71/2/4
f 71/2/4 70/2/4 72/2/4
f 73/2/4 74/2/4 75/2/4
f 75/2/4 74/2/4 76/2/4
f 77/1/4 78/1/4 79/1/4
f 79/1/4 78/1/4 80/1/4
f 81/1/4 82/1/4 83/1/4
f 83/1/4 82/1/4 84/1/4
f 81/1/4 83/1/4 85/1/4
f 84/1/4 82/1/4 86/1/4
f 81/1/4 85/1/4 87/1/4
f 85/1/4 86/1/4 87/1/4
f 86/1/4 82/1/4 88/1/4
f 87/1/4 86/1/4 88/1/4
f 89/2/4 90/2/4 91/2/4
f 91/2/4 90/2/4 92/2/4
f 93/2/4 94/2/4 95/2/4
f 95/2/4 94/2/4 96/2/4
f 101/2/5 98/2/5 97/2/5
f 102/2/5 98/2/5 101/2/5
f 103/2/5 100/2/5 99/2/5
f 104/2/5 100/2/5 103/2/5
f 106/1/5 103/1/5 102/1/5
f 107/1/5 103/1/5 106/1/5
f 109/2/5 106/2/5 105/2/5
f 110/2/5 106/2/5 109/2/5
f 111/2/5 108/2/5 107/2/5
f 112/2/5 108/2/5 111/2/5
f 115/1/5 114/1/5 113/1/5
f 116/1/5 114/1/5 115/1/5
f 117/1/6 118/1/6 119/1/6
f 119/1/6 118/1/6 120/1/6
f 121/2/6 122/2/6 125/2/6
f 125/2/6 122/2/6 126/2/6
f 123/2/6 124/2/6 127/2/6
f 127/2/6 124/2/6 128/2/6
f 126/1/6 127/1/6 130/1/6
f 130/1/6 127/1/6 131/1/6
f 129/2/6 130/2/6 133/2/6
f 133/2/6 130/2/6 134/2/6
f 131/2/6 132/2/6 135/2/6
f 135/2/6 132/2/6 136/2/6
