# MagicaVoxel @ Ephtracy

# group
o 

# material
mtllib Farola.mtl
usemtl palette

# normals
vn -1 0 0
vn 1 0 0
vn 0 0 1
vn 0 0 -1
vn 0 -1 0
vn 0 1 0

# texcoords
vt 0.982422 0.5
vt 0.990234 0.5
vt 0.994141 0.5

# verts
v -0.5 0 -0.8
v -0.5 0 -1.5
v -0.5 0.1 -0.8
v -0.5 0.1 -1.5
v -0.4 0.1 -0.9
v -0.4 0.1 -1.4
v -0.4 4.9 0.9
v -0.4 4.9 -0.9
v -0.4 5.5 0.9
v -0.4 5.5 -1.4
v -0.2 4.8 0.7
v -0.2 4.8 0.4
v -0.2 4.9 0.7
v -0.2 4.9 0.4
v 0 4.8 0.7
v 0 4.8 0.4
v 0 4.9 0.7
v 0 4.9 0.4
v 0.2 0.1 -0.9
v 0.2 0.1 -1.4
v 0.2 4.9 0.9
v 0.2 4.9 -0.9
v 0.2 5.5 0.9
v 0.2 5.5 -1.4
v 0.3 0 -0.8
v 0.3 0 -1.5
v 0.3 0.1 -0.8
v 0.3 0.1 -1.5
v -0.4 4.9 0.9
v -0.4 5.5 0.9
v 0.2 4.9 0.9
v 0.2 5.5 0.9
v -0.2 4.8 0.7
v -0.2 4.9 0.7
v 0 4.8 0.7
v 0 4.9 0.7
v -0.5 0 -0.8
v -0.5 0.1 -0.8
v 0.3 0 -0.8
v 0.3 0.1 -0.8
v -0.4 0.1 -0.9
v -0.4 4.9 -0.9
v 0.2 0.1 -0.9
v 0.2 4.9 -0.9
v -0.2 4.8 0.4
v -0.2 4.9 0.4
v 0 4.8 0.4
v 0 4.9 0.4
v -0.4 0.1 -1.4
v -0.4 5.5 -1.4
v 0.2 0.1 -1.4
v 0.2 5.5 -1.4
v -0.5 0 -1.5
v -0.5 0.1 -1.5
v 0.3 0 -1.5
v 0.3 0.1 -1.5
v -0.5 0 -0.8
v 0.3 0 -0.8
v -0.5 0 -1.5
v 0.3 0 -1.5
v -0.2 4.8 0.7
v 0 4.8 0.7
v -0.2 4.8 0.4
v 0 4.8 0.4
v -0.4 4.9 0.9
v 0.2 4.9 0.9
v -0.2 4.9 0.7
v 0 4.9 0.7
v -0.2 4.9 0.4
v 0 4.9 0.4
v -0.4 4.9 -0.9
v 0.2 4.9 -0.9
v -0.5 0.1 -0.8
v 0.3 0.1 -0.8
v -0.4 0.1 -0.9
v 0.2 0.1 -0.9
v -0.4 0.1 -1.4
v 0.2 0.1 -1.4
v -0.5 0.1 -1.5
v 0.3 0.1 -1.5
v -0.4 5.5 0.9
v 0.2 5.5 0.9
v -0.4 5.5 -1.4
v 0.2 5.5 -1.4

# faces
f 3/2/1 2/2/1 1/2/1
f 4/2/1 2/2/1 3/2/1
f 8/1/1 6/1/1 5/1/1
f 9/1/1 8/1/1 7/1/1
f 10/1/1 6/1/1 8/1/1
f 10/1/1 8/1/1 9/1/1
f 13/3/1 12/3/1 11/3/1
f 14/3/1 12/3/1 13/3/1
f 15/3/2 16/3/2 17/3/2
f 17/3/2 16/3/2 18/3/2
f 19/1/2 20/1/2 22/1/2
f 21/1/2 22/1/2 23/1/2
f 22/1/2 20/1/2 24/1/2
f 23/1/2 22/1/2 24/1/2
f 25/2/2 26/2/2 27/2/2
f 27/2/2 26/2/2 28/2/2
f 31/1/3 30/1/3 29/1/3
f 32/1/3 30/1/3 31/1/3
f 35/3/3 34/3/3 33/3/3
f 36/3/3 34/3/3 35/3/3
f 39/2/3 38/2/3 37/2/3
f 40/2/3 38/2/3 39/2/3
f 43/1/3 42/1/3 41/1/3
f 44/1/3 42/1/3 43/1/3
f 45/3/4 46/3/4 47/3/4
f 47/3/4 46/3/4 48/3/4
f 49/1/4 50/1/4 51/1/4
f 51/1/4 50/1/4 52/1/4
f 53/2/4 54/2/4 55/2/4
f 55/2/4 54/2/4 56/2/4
f 59/2/5 58/2/5 57/2/5
f 60/2/5 58/2/5 59/2/5
f 63/3/5 62/3/5 61/3/5
f 64/3/5 62/3/5 63/3/5
f 67/1/5 66/1/5 65/1/5
f 68/1/5 66/1/5 67/1/5
f 69/1/5 67/1/5 65/1/5
f 70/1/5 66/1/5 68/1/5
f 71/1/5 69/1/5 65/1/5
f 71/1/5 70/1/5 69/1/5
f 72/1/5 66/1/5 70/1/5
f 72/1/5 70/1/5 71/1/5
f 73/2/6 74/2/6 75/2/6
f 75/2/6 74/2/6 76/2/6
f 73/2/6 75/2/6 77/2/6
f 76/2/6 74/2/6 78/2/6
f 73/2/6 77/2/6 79/2/6
f 77/2/6 78/2/6 79/2/6
f 78/2/6 74/2/6 80/2/6
f 79/2/6 78/2/6 80/2/6
f 81/1/6 82/1/6 83/1/6
f 83/1/6 82/1/6 84/1/6
