# MagicaVoxel @ Ephtracy

# group
o 

# material
mtllib Cama.mtl
usemtl palette

# normals
vn -1 0 0
vn 1 0 0
vn 0 0 1
vn 0 0 -1
vn 0 -1 0
vn 0 1 0

# texcoords
vt 0.373047 0.5
vt 0.537109 0.5
vt 0.826172 0.5
vt 0.958984 0.5

# verts
v -1.1 0 1.2
v -1.1 0 -0.7
v -1.1 0.5 1.2
v -1.1 0.5 -0.7
v -1 0 -1.2
v -1 0 -1.3
v -1 0.3 -0.7
v -1 0.3 -1.2
v -1 0.3 -1.3
v -1 0.4 -0.7
v -1 0.4 -1.3
v -1 0.5 -0.7
v -1 0.5 -1.3
v -0.9 0.5 -0.8
v -0.9 0.5 -1.2
v -0.9 0.6 -0.8
v -0.9 0.6 -1.2
v 0.5 0 1.2
v 0.5 0 1.1
v 0.5 0 -1.2
v 0.5 0 -1.3
v 0.5 0.3 1.2
v 0.5 0.3 1.1
v 0.5 0.3 -1.2
v 0.5 0.3 -1.3
v 0.6 0 1.1
v 0.6 0 -0.7
v 0.6 0.3 1.1
v 0.6 0.3 -0.7
v -1 0 1.1
v -1 0 -0.7
v -1 0.3 1.1
v -1 0.3 -0.7
v -0.9 0 1.2
v -0.9 0 1.1
v -0.9 0 -1.2
v -0.9 0 -1.3
v -0.9 0.3 1.2
v -0.9 0.3 1.1
v -0.9 0.3 -1.2
v -0.9 0.3 -1.3
v 0.5 0.5 -0.8
v 0.5 0.5 -1.2
v 0.5 0.6 -0.8
v 0.5 0.6 -1.2
v 0.6 0 -1.2
v 0.6 0 -1.3
v 0.6 0.3 -0.7
v 0.6 0.3 -1.2
v 0.6 0.3 -1.3
v 0.6 0.4 -0.7
v 0.6 0.4 -1.3
v 0.6 0.5 -0.7
v 0.6 0.5 -1.3
v 0.7 0 1.2
v 0.7 0 -0.7
v 0.7 0.5 1.2
v 0.7 0.5 -0.7
v -1.1 0 1.2
v -1.1 0.5 1.2
v -1 0 1.2
v -1 0.3 1.2
v -1 0.4 1.2
v -0.9 0 1.2
v -0.9 0.3 1.2
v 0.5 0 1.2
v 0.5 0.3 1.2
v 0.6 0 1.2
v 0.6 0.3 1.2
v 0.6 0.4 1.2
v 0.7 0 1.2
v 0.7 0.5 1.2
v -0.9 0.5 -0.8
v -0.9 0.6 -0.8
v 0.5 0.5 -0.8
v 0.5 0.6 -0.8
v -1 0 -1.2
v -1 0.3 -1.2
v -0.9 0 -1.2
v -0.9 0.3 -1.2
v 0.5 0 -1.2
v 0.5 0.3 -1.2
v 0.6 0 -1.2
v 0.6 0.3 -1.2
v -1 0 1.1
v -1 0.3 1.1
v -0.9 0 1.1
v -0.9 0.3 1.1
v 0.5 0 1.1
v 0.5 0.3 1.1
v 0.6 0 1.1
v 0.6 0.3 1.1
v -1.1 0 -0.7
v -1.1 0.5 -0.7
v -1 0 -0.7
v -1 0.3 -0.7
v -1 0.4 -0.7
v -1 0.5 -0.7
v 0.6 0 -0.7
v 0.6 0.3 -0.7
v 0.6 0.4 -0.7
v 0.6 0.5 -0.7
v 0.7 0 -0.7
v 0.7 0.5 -0.7
v -0.9 0.5 -1.2
v -0.9 0.6 -1.2
v 0.5 0.5 -1.2
v 0.5 0.6 -1.2
v -1 0 -1.3
v -1 0.3 -1.3
v -1 0.4 -1.3
v -1 0.5 -1.3
v -0.9 0 -1.3
v -0.9 0.3 -1.3
v 0.5 0 -1.3
v 0.5 0.3 -1.3
v 0.6 0 -1.3
v 0.6 0.3 -1.3
v 0.6 0.4 -1.3
v 0.6 0.5 -1.3
v -1.1 0 1.2
v -1 0 1.2
v -0.9 0 1.2
v 0.5 0 1.2
v 0.6 0 1.2
v 0.7 0 1.2
v -1 0 1.1
v -0.9 0 1.1
v 0.5 0 1.1
v 0.6 0 1.1
v -1.1 0 -0.7
v -1 0 -0.7
v 0.6 0 -0.7
v 0.7 0 -0.7
v -1 0 -1.2
v -0.9 0 -1.2
v 0.5 0 -1.2
v 0.6 0 -1.2
v -1 0 -1.3
v -0.9 0 -1.3
v 0.5 0 -1.3
v 0.6 0 -1.3
v -0.9 0.3 1.2
v 0.5 0.3 1.2
v -1 0.3 1.1
v -0.9 0.3 1.1
v 0.5 0.3 1.1
v 0.6 0.3 1.1
v -1 0.3 -0.7
v 0.6 0.3 -0.7
v -1 0.3 -1.2
v -0.9 0.3 -1.2
v 0.5 0.3 -1.2
v 0.6 0.3 -1.2
v -0.9 0.3 -1.3
v 0.5 0.3 -1.3
v -1.1 0.5 1.2
v 0.7 0.5 1.2
v -1.1 0.5 -0.7
v -1 0.5 -0.7
v 0.6 0.5 -0.7
v 0.7 0.5 -0.7
v -0.9 0.5 -0.8
v 0.5 0.5 -0.8
v -0.9 0.5 -1.2
v 0.5 0.5 -1.2
v -1 0.5 -1.3
v 0.6 0.5 -1.3
v -0.9 0.6 -0.8
v 0.5 0.6 -0.8
v -0.9 0.6 -1.2
v 0.5 0.6 -1.2

# faces
f 3/1/1 2/1/1 1/1/1
f 4/1/1 2/1/1 3/1/1
f 8/2/1 6/2/1 5/2/1
f 9/2/1 6/2/1 8/2/1
f 10/3/1 8/3/1 7/3/1
f 10/3/1 9/3/1 8/3/1
f 11/3/1 9/3/1 10/3/1
f 12/4/1 11/4/1 10/4/1
f 13/4/1 11/4/1 12/4/1
f 16/4/1 15/4/1 14/4/1
f 17/4/1 15/4/1 16/4/1
f 22/2/1 19/2/1 18/2/1
f 23/2/1 19/2/1 22/2/1
f 24/2/1 21/2/1 20/2/1
f 25/2/1 21/2/1 24/2/1
f 28/1/1 27/1/1 26/1/1
f 29/1/1 27/1/1 28/1/1
f 30/1/2 31/1/2 32/1/2
f 32/1/2 31/1/2 33/1/2
f 34/2/2 35/2/2 38/2/2
f 38/2/2 35/2/2 39/2/2
f 36/2/2 37/2/2 40/2/2
f 40/2/2 37/2/2 41/2/2
f 42/4/2 43/4/2 44/4/2
f 44/4/2 43/4/2 45/4/2
f 46/2/2 47/2/2 49/2/2
f 49/2/2 47/2/2 50/2/2
f 48/3/2 49/3/2 51/3/2
f 49/3/2 50/3/2 51/3/2
f 51/3/2 50/3/2 52/3/2
f 51/4/2 52/4/2 53/4/2
f 53/4/2 52/4/2 54/4/2
f 55/1/2 56/1/2 57/1/2
f 57/1/2 56/1/2 58/1/2
f 61/1/3 60/1/3 59/1/3
f 62/1/3 60/1/3 61/1/3
f 63/1/3 60/1/3 62/1/3
f 64/2/3 62/2/3 61/2/3
f 65/3/3 63/3/3 62/3/3
f 65/2/3 62/2/3 64/2/3
f 67/3/3 63/3/3 65/3/3
f 68/2/3 67/2/3 66/2/3
f 69/3/3 63/3/3 67/3/3
f 69/2/3 67/2/3 68/2/3
f 70/1/3 60/1/3 63/1/3
f 70/3/3 63/3/3 69/3/3
f 71/1/3 69/1/3 68/1/3
f 71/1/3 70/1/3 69/1/3
f 72/1/3 60/1/3 70/1/3
f 72/1/3 70/1/3 71/1/3
f 75/4/3 74/4/3 73/4/3
f 76/4/3 74/4/3 75/4/3
f 79/2/3 78/2/3 77/2/3
f 80/2/3 78/2/3 79/2/3
f 83/2/3 82/2/3 81/2/3
f 84/2/3 82/2/3 83/2/3
f 85/2/4 86/2/4 87/2/4
f 87/2/4 86/2/4 88/2/4
f 89/2/4 90/2/4 91/2/4
f 91/2/4 90/2/4 92/2/4
f 93/1/4 94/1/4 95/1/4
f 95/1/4 94/1/4 96/1/4
f 96/1/4 94/1/4 97/1/4
f 97/1/4 94/1/4 98/1/4
f 99/1/4 100/1/4 103/1/4
f 101/1/4 102/1/4 103/1/4
f 100/1/4 101/1/4 103/1/4
f 103/1/4 102/1/4 104/1/4
f 105/4/4 106/4/4 107/4/4
f 107/4/4 106/4/4 108/4/4
f 109/2/4 110/2/4 113/2/4
f 110/3/4 111/3/4 114/3/4
f 113/2/4 110/2/4 114/2/4
f 114/3/4 111/3/4 116/3/4
f 115/2/4 116/2/4 117/2/4
f 116/3/4 111/3/4 118/3/4
f 117/2/4 116/2/4 118/2/4
f 111/4/4 112/4/4 119/4/4
f 118/3/4 111/3/4 119/3/4
f 119/4/4 112/4/4 120/4/4
f 127/1/5 122/1/5 121/1/5
f 127/2/5 123/2/5 122/2/5
f 128/2/5 123/2/5 127/2/5
f 129/2/5 125/2/5 124/2/5
f 130/1/5 126/1/5 125/1/5
f 130/2/5 125/2/5 129/2/5
f 131/1/5 127/1/5 121/1/5
f 132/1/5 127/1/5 131/1/5
f 133/1/5 126/1/5 130/1/5
f 134/1/5 126/1/5 133/1/5
f 139/2/5 136/2/5 135/2/5
f 140/2/5 136/2/5 139/2/5
f 141/2/5 138/2/5 137/2/5
f 142/2/5 138/2/5 141/2/5
f 146/3/5 144/3/5 143/3/5
f 147/3/5 144/3/5 146/3/5
f 149/3/5 146/3/5 145/3/5
f 149/3/5 148/3/5 147/3/5
f 149/3/5 147/3/5 146/3/5
f 150/3/5 148/3/5 149/3/5
f 151/3/5 150/3/5 149/3/5
f 152/3/5 150/3/5 151/3/5
f 153/3/5 150/3/5 152/3/5
f 154/3/5 150/3/5 153/3/5
f 155/3/5 153/3/5 152/3/5
f 156/3/5 153/3/5 155/3/5
f 157/1/6 158/1/6 159/1/6
f 159/1/6 158/1/6 160/1/6
f 160/1/6 158/1/6 161/1/6
f 161/1/6 158/1/6 162/1/6
f 160/4/6 161/4/6 163/4/6
f 163/4/6 161/4/6 164/4/6
f 160/4/6 163/4/6 165/4/6
f 164/4/6 161/4/6 166/4/6
f 160/4/6 165/4/6 167/4/6
f 165/4/6 166/4/6 167/4/6
f 166/4/6 161/4/6 168/4/6
f 167/4/6 166/4/6 168/4/6
f 169/4/6 170/4/6 171/4/6
f 171/4/6 170/4/6 172/4/6
