# MagicaVoxel @ Ephtracy

# group
o 

# material
mtllib Jesus.mtl
usemtl palette

# normals
vn -1 0 0
vn 1 0 0
vn 0 0 1
vn 0 0 -1
vn 0 -1 0
vn 0 1 0

# texcoords
vt 0.0605469 0.5
vt 0.537109 0.5
vt 0.841797 0.5
vt 0.958984 0.5
vt 0.994141 0.5

# verts
v -2 4.2 2.1
v -2 4.2 1.6
v -2 4.9 2.1
v -2 4.9 1.6
v -0.8 4.1 1.6
v -0.8 4.1 0.4
v -0.8 4.1 0.3
v -0.8 4.2 1.6
v -0.8 4.4 0.4
v -0.8 4.4 0.3
v -0.8 4.9 1.6
v -0.8 5.5 1.6
v -0.8 5.5 0.3
v -0.7 3 1.3
v -0.7 3 0.7
v -0.7 3.1 1.3
v -0.7 3.1 0.7
v -0.7 3.5 1.3
v -0.7 3.5 0.7
v -0.7 3.6 1.3
v -0.7 3.6 0.7
v -0.6 3 1.4
v -0.6 3 1.3
v -0.6 3.1 1.4
v -0.6 3.1 1.3
v -0.6 3.5 1.4
v -0.6 3.5 1.3
v -0.6 3.6 1.4
v -0.6 3.6 1.3
v -0.5 3 1.5
v -0.5 3 1.4
v -0.5 3.1 1.5
v -0.5 3.1 1.4
v -0.5 3.5 1.5
v -0.5 3.5 1.4
v -0.5 3.6 1.5
v -0.5 3.6 1.4
v -0.4 4.9 2.1
v -0.4 4.9 1.6
v -0.4 5.5 1.6
v -0.4 5.9 2.1
v -0.4 5.9 1.6
v -0.3 0 2.1
v -0.3 0 1.6
v -0.3 4.1 1.6
v -0.3 4.2 2.1
v -0.3 4.2 1.6
v 2.38419e-007 2.4 1.4
v 2.38419e-007 2.4 1.3
v 2.38419e-007 3 1.4
v 2.38419e-007 3.1 1.4
v 2.38419e-007 3.5 1.4
v 2.38419e-007 3.6 1.4
v 2.38419e-007 4.1 1.4
v 2.38419e-007 4.1 1.3
v 0.1 3 1.5
v 0.1 3 1.4
v 0.1 3.1 1.5
v 0.1 3.1 1.4
v 0.1 3.5 1.5
v 0.1 3.5 1.4
v 0.1 3.6 1.5
v 0.1 3.6 1.4
v 0.6 3 1.4
v 0.6 3 1.3
v 0.6 3.1 1.4
v 0.6 3.1 1.3
v 0.6 3.5 1.4
v 0.6 3.5 1.3
v 0.6 3.6 1.4
v 0.6 3.6 1.3
v 0.7 3 1.3
v 0.7 3 0.7
v 0.7 3.1 1.3
v 0.7 3.1 0.7
v 0.7 3.5 1.3
v 0.7 3.5 0.7
v 0.7 3.6 1.3
v 0.7 3.6 0.7
v -0.6 3 1.3
v -0.6 3 0.7
v -0.6 3.1 1.3
v -0.6 3.1 0.7
v -0.6 3.5 1.3
v -0.6 3.5 0.7
v -0.6 3.6 1.3
v -0.6 3.6 0.7
v -0.5 3 1.4
v -0.5 3 1.3
v -0.5 3.1 1.4
v -0.5 3.1 1.3
v -0.5 3.5 1.4
v -0.5 3.5 1.3
v -0.5 3.6 1.4
v -0.5 3.6 1.3
v 2.38419e-007 3 1.5
v 2.38419e-007 3 1.4
v 2.38419e-007 3.1 1.5
v 2.38419e-007 3.1 1.4
v 2.38419e-007 3.5 1.5
v 2.38419e-007 3.5 1.4
v 2.38419e-007 3.6 1.5
v 2.38419e-007 3.6 1.4
v 0.1 2.4 1.4
v 0.1 2.4 1.3
v 0.1 3 1.4
v 0.1 3.1 1.4
v 0.1 3.5 1.4
v 0.1 3.6 1.4
v 0.1 4.1 1.4
v 0.1 4.1 1.3
v 0.4 0 2.1
v 0.4 0 1.6
v 0.4 4.1 1.6
v 0.4 4.2 2.1
v 0.4 4.2 1.6
v 0.4 4.9 2.1
v 0.4 4.9 1.6
v 0.4 5.5 1.6
v 0.4 5.9 2.1
v 0.4 5.9 1.6
v 0.6 3 1.5
v 0.6 3 1.4
v 0.6 3.1 1.5
v 0.6 3.1 1.4
v 0.6 3.5 1.5
v 0.6 3.5 1.4
v 0.6 3.6 1.5
v 0.6 3.6 1.4
v 0.7 3 1.4
v 0.7 3 1.3
v 0.7 3.1 1.4
v 0.7 3.1 1.3
v 0.7 3.5 1.4
v 0.7 3.5 1.3
v 0.7 3.6 1.4
v 0.7 3.6 1.3
v 0.8 3 1.3
v 0.8 3 0.7
v 0.8 3.1 1.3
v 0.8 3.1 0.7
v 0.8 3.5 1.3
v 0.8 3.5 0.7
v 0.8 3.6 1.3
v 0.8 3.6 0.7
v 1 4.1 1.6
v 1 4.1 0.4
v 1 4.1 0.3
v 1 4.2 1.6
v 1 4.5 0.4
v 1 4.5 0.3
v 1 4.9 1.6
v 1 5.5 1.6
v 1 5.5 0.3
v 2 4.2 2.1
v 2 4.2 1.6
v 2 4.9 2.1
v 2 4.9 1.6
v -2 4.2 2.1
v -2 4.9 2.1
v -0.4 4.9 2.1
v -0.4 5.9 2.1
v -0.3 0 2.1
v -0.3 4.2 2.1
v 0.4 0 2.1
v 0.4 4.2 2.1
v 0.4 4.9 2.1
v 0.4 5.9 2.1
v 2 4.2 2.1
v 2 4.9 2.1
v -0.8 4.1 1.6
v -0.8 4.2 1.6
v -0.8 4.9 1.6
v -0.8 5.5 1.6
v -0.4 4.9 1.6
v -0.4 5.5 1.6
v -0.3 4.1 1.6
v -0.3 4.2 1.6
v 0.4 4.1 1.6
v 0.4 4.2 1.6
v 0.4 4.9 1.6
v 0.4 5.5 1.6
v 1 4.1 1.6
v 1 4.2 1.6
v 1 4.9 1.6
v 1 5.5 1.6
v -0.5 3 1.5
v -0.5 3.1 1.5
v -0.5 3.5 1.5
v -0.5 3.6 1.5
v 2.38419e-007 3 1.5
v 2.38419e-007 3.1 1.5
v 2.38419e-007 3.5 1.5
v 2.38419e-007 3.6 1.5
v 0.1 3 1.5
v 0.1 3.1 1.5
v 0.1 3.5 1.5
v 0.1 3.6 1.5
v 0.6 3 1.5
v 0.6 3.1 1.5
v 0.6 3.5 1.5
v 0.6 3.6 1.5
v -0.6 3 1.4
v -0.6 3.1 1.4
v -0.6 3.5 1.4
v -0.6 3.6 1.4
v -0.5 3 1.4
v -0.5 3.1 1.4
v -0.5 3.5 1.4
v -0.5 3.6 1.4
v 2.38419e-007 2.4 1.4
v 2.38419e-007 3 1.4
v 2.38419e-007 3.1 1.4
v 2.38419e-007 3.5 1.4
v 2.38419e-007 3.6 1.4
v 2.38419e-007 4.1 1.4
v 0.1 2.4 1.4
v 0.1 3 1.4
v 0.1 3.1 1.4
v 0.1 3.5 1.4
v 0.1 3.6 1.4
v 0.1 4.1 1.4
v 0.6 3 1.4
v 0.6 3.1 1.4
v 0.6 3.5 1.4
v 0.6 3.6 1.4
v 0.7 3 1.4
v 0.7 3.1 1.4
v 0.7 3.5 1.4
v 0.7 3.6 1.4
v -0.7 3 1.3
v -0.7 3.1 1.3
v -0.7 3.5 1.3
v -0.7 3.6 1.3
v -0.6 3 1.3
v -0.6 3.1 1.3
v -0.6 3.5 1.3
v -0.6 3.6 1.3
v 0.7 3 1.3
v 0.7 3.1 1.3
v 0.7 3.5 1.3
v 0.7 3.6 1.3
v 0.8 3 1.3
v 0.8 3.1 1.3
v 0.8 3.5 1.3
v 0.8 3.6 1.3
v -2 4.2 1.6
v -2 4.9 1.6
v -0.8 4.2 1.6
v -0.8 4.9 1.6
v -0.4 5.5 1.6
v -0.4 5.9 1.6
v -0.3 0 1.6
v -0.3 4.1 1.6
v 0.4 0 1.6
v 0.4 4.1 1.6
v 0.4 5.5 1.6
v 0.4 5.9 1.6
v 1 4.2 1.6
v 1 4.9 1.6
v 2 4.2 1.6
v 2 4.9 1.6
v -0.5 3 1.4
v -0.5 3.1 1.4
v -0.5 3.5 1.4
v -0.5 3.6 1.4
v 2.38419e-007 3 1.4
v 2.38419e-007 3.1 1.4
v 2.38419e-007 3.5 1.4
v 2.38419e-007 3.6 1.4
v 0.1 3 1.4
v 0.1 3.1 1.4
v 0.1 3.5 1.4
v 0.1 3.6 1.4
v 0.6 3 1.4
v 0.6 3.1 1.4
v 0.6 3.5 1.4
v 0.6 3.6 1.4
v -0.6 3 1.3
v -0.6 3.1 1.3
v -0.6 3.5 1.3
v -0.6 3.6 1.3
v -0.5 3 1.3
v -0.5 3.1 1.3
v -0.5 3.5 1.3
v -0.5 3.6 1.3
v 2.38419e-007 2.4 1.3
v 2.38419e-007 4.1 1.3
v 0.1 2.4 1.3
v 0.1 4.1 1.3
v 0.6 3 1.3
v 0.6 3.1 1.3
v 0.6 3.5 1.3
v 0.6 3.6 1.3
v 0.7 3 1.3
v 0.7 3.1 1.3
v 0.7 3.5 1.3
v 0.7 3.6 1.3
v -0.7 3 0.7
v -0.7 3.1 0.7
v -0.7 3.5 0.7
v -0.7 3.6 0.7
v -0.6 3 0.7
v -0.6 3.1 0.7
v -0.6 3.5 0.7
v -0.6 3.6 0.7
v 0.7 3 0.7
v 0.7 3.1 0.7
v 0.7 3.5 0.7
v 0.7 3.6 0.7
v 0.8 3 0.7
v 0.8 3.1 0.7
v 0.8 3.5 0.7
v 0.8 3.6 0.7
v -0.8 4.1 0.3
v -0.8 4.4 0.3
v -0.8 5.5 0.3
v -0.7 4.1 0.3
v -0.7 4.3 0.3
v -0.7 4.4 0.3
v -0.7 4.7 0.3
v -0.6 4.3 0.3
v -0.6 4.4 0.3
v -0.6 4.6 0.3
v -0.6 4.7 0.3
v -0.6 4.9 0.3
v -0.6 5.2 0.3
v -0.5 4.1 0.3
v -0.5 4.4 0.3
v -0.5 4.5 0.3
v -0.5 4.6 0.3
v -0.5 4.8 0.3
v -0.4 4.1 0.3
v -0.4 4.2 0.3
v -0.4 4.5 0.3
v -0.4 4.8 0.3
v -0.4 4.9 0.3
v -0.3 4.5 0.3
v -0.3 4.6 0.3
v -0.2 4.8 0.3
v -0.2 5.2 0.3
v 0.3 4.8 0.3
v 0.3 5.2 0.3
v 0.4 4.5 0.3
v 0.4 4.6 0.3
v 0.5 4.1 0.3
v 0.5 4.2 0.3
v 0.5 4.5 0.3
v 0.6 4.1 0.3
v 0.6 4.4 0.3
v 0.6 4.5 0.3
v 0.6 4.6 0.3
v 0.6 4.8 0.3
v 0.6 4.9 0.3
v 0.7 4.4 0.3
v 0.7 4.5 0.3
v 0.7 4.6 0.3
v 0.7 4.7 0.3
v 0.7 4.9 0.3
v 0.7 5.2 0.3
v 0.8 4.1 0.3
v 0.8 4.5 0.3
v 0.8 4.7 0.3
v 1 4.1 0.3
v 1 4.5 0.3
v 1 5.5 0.3
v -0.3 0 2.1
v 0.4 0 2.1
v -0.3 0 1.6
v 0.4 0 1.6
v 2.38419e-007 2.4 1.4
v 0.1 2.4 1.4
v 2.38419e-007 2.4 1.3
v 0.1 2.4 1.3
v -0.5 3 1.5
v 2.38419e-007 3 1.5
v 0.1 3 1.5
v 0.6 3 1.5
v -0.6 3 1.4
v -0.5 3 1.4
v 2.38419e-007 3 1.4
v 0.1 3 1.4
v 0.6 3 1.4
v 0.7 3 1.4
v -0.7 3 1.3
v -0.6 3 1.3
v -0.5 3 1.3
v 0.6 3 1.3
v 0.7 3 1.3
v 0.8 3 1.3
v -0.7 3 0.7
v -0.6 3 0.7
v 0.7 3 0.7
v 0.8 3 0.7
v -0.5 3.5 1.5
v 2.38419e-007 3.5 1.5
v 0.1 3.5 1.5
v 0.6 3.5 1.5
v -0.6 3.5 1.4
v -0.5 3.5 1.4
v 2.38419e-007 3.5 1.4
v 0.1 3.5 1.4
v 0.6 3.5 1.4
v 0.7 3.5 1.4
v -0.7 3.5 1.3
v -0.6 3.5 1.3
v -0.5 3.5 1.3
v 0.6 3.5 1.3
v 0.7 3.5 1.3
v 0.8 3.5 1.3
v -0.7 3.5 0.7
v -0.6 3.5 0.7
v 0.7 3.5 0.7
v 0.8 3.5 0.7
v -0.8 4.1 1.6
v -0.3 4.1 1.6
v 0.4 4.1 1.6
v 1 4.1 1.6
v 2.38419e-007 4.1 1.4
v 0.1 4.1 1.4
v 2.38419e-007 4.1 1.3
v 0.1 4.1 1.3
v -0.8 4.1 0.4
v -0.7 4.1 0.4
v -0.5 4.1 0.4
v -0.4 4.1 0.4
v 0.5 4.1 0.4
v 0.6 4.1 0.4
v 0.8 4.1 0.4
v 1 4.1 0.4
v -0.8 4.1 0.3
v -0.7 4.1 0.3
v -0.5 4.1 0.3
v -0.4 4.1 0.3
v 0.5 4.1 0.3
v 0.6 4.1 0.3
v 0.8 4.1 0.3
v 1 4.1 0.3
v -2 4.2 2.1
v -0.3 4.2 2.1
v 0.4 4.2 2.1
v 2 4.2 2.1
v -2 4.2 1.6
v -0.8 4.2 1.6
v -0.3 4.2 1.6
v 0.4 4.2 1.6
v 1 4.2 1.6
v 2 4.2 1.6
v -0.5 3.1 1.5
v 2.38419e-007 3.1 1.5
v 0.1 3.1 1.5
v 0.6 3.1 1.5
v -0.6 3.1 1.4
v -0.5 3.1 1.4
v 2.38419e-007 3.1 1.4
v 0.1 3.1 1.4
v 0.6 3.1 1.4
v 0.7 3.1 1.4
v -0.7 3.1 1.3
v -0.6 3.1 1.3
v -0.5 3.1 1.3
v 0.6 3.1 1.3
v 0.7 3.1 1.3
v 0.8 3.1 1.3
v -0.7 3.1 0.7
v -0.6 3.1 0.7
v 0.7 3.1 0.7
v 0.8 3.1 0.7
v -0.5 3.6 1.5
v 2.38419e-007 3.6 1.5
v 0.1 3.6 1.5
v 0.6 3.6 1.5
v -0.6 3.6 1.4
v -0.5 3.6 1.4
v 2.38419e-007 3.6 1.4
v 0.1 3.6 1.4
v 0.6 3.6 1.4
v 0.7 3.6 1.4
v -0.7 3.6 1.3
v -0.6 3.6 1.3
v -0.5 3.6 1.3
v 0.6 3.6 1.3
v 0.7 3.6 1.3
v 0.8 3.6 1.3
v -0.7 3.6 0.7
v -0.6 3.6 0.7
v 0.7 3.6 0.7
v 0.8 3.6 0.7
v -2 4.9 2.1
v -0.4 4.9 2.1
v 0.4 4.9 2.1
v 2 4.9 2.1
v -2 4.9 1.6
v -0.8 4.9 1.6
v -0.4 4.9 1.6
v 0.4 4.9 1.6
v 1 4.9 1.6
v 2 4.9 1.6
v -0.8 5.5 1.6
v -0.4 5.5 1.6
v 0.4 5.5 1.6
v 1 5.5 1.6
v -0.8 5.5 0.3
v 1 5.5 0.3
v -0.4 5.9 2.1
v 0.4 5.9 2.1
v -0.4 5.9 1.6
v 0.4 5.9 1.6

# faces
f 3/2/1 2/2/1 1/2/1
f 4/2/1 2/2/1 3/2/1
f 8/1/1 6/1/1 5/1/1
f 9/3/1 7/3/1 6/3/1
f 9/1/1 6/1/1 8/1/1
f 10/3/1 7/3/1 9/3/1
f 11/1/1 9/1/1 8/1/1
f 11/1/1 10/1/1 9/1/1
f 12/1/1 10/1/1 11/1/1
f 13/1/1 10/1/1 12/1/1
f 16/4/1 15/4/1 14/4/1
f 17/4/1 15/4/1 16/4/1
f 20/4/1 19/4/1 18/4/1
f 21/4/1 19/4/1 20/4/1
f 24/4/1 23/4/1 22/4/1
f 25/4/1 23/4/1 24/4/1
f 28/4/1 27/4/1 26/4/1
f 29/4/1 27/4/1 28/4/1
f 32/4/1 31/4/1 30/4/1
f 33/4/1 31/4/1 32/4/1
f 36/4/1 35/4/1 34/4/1
f 37/4/1 35/4/1 36/4/1
f 40/2/1 39/2/1 38/2/1
f 41/2/1 40/2/1 38/2/1
f 42/2/1 40/2/1 41/2/1
f 45/2/1 44/2/1 43/2/1
f 46/2/1 45/2/1 43/2/1
f 47/2/1 45/2/1 46/2/1
f 50/4/1 49/4/1 48/4/1
f 51/4/1 49/4/1 50/4/1
f 52/4/1 49/4/1 51/4/1
f 53/4/1 49/4/1 52/4/1
f 54/4/1 49/4/1 53/4/1
f 55/4/1 49/4/1 54/4/1
f 58/4/1 57/4/1 56/4/1
f 59/4/1 57/4/1 58/4/1
f 62/4/1 61/4/1 60/4/1
f 63/4/1 61/4/1 62/4/1
f 66/4/1 65/4/1 64/4/1
f 67/4/1 65/4/1 66/4/1
f 70/4/1 69/4/1 68/4/1
f 71/4/1 69/4/1 70/4/1
f 74/4/1 73/4/1 72/4/1
f 75/4/1 73/4/1 74/4/1
f 78/4/1 77/4/1 76/4/1
f 79/4/1 77/4/1 78/4/1
f 80/4/2 81/4/2 82/4/2
f 82/4/2 81/4/2 83/4/2
f 84/4/2 85/4/2 86/4/2
f 86/4/2 85/4/2 87/4/2
f 88/4/2 89/4/2 90/4/2
f 90/4/2 89/4/2 91/4/2
f 92/4/2 93/4/2 94/4/2
f 94/4/2 93/4/2 95/4/2
f 96/4/2 97/4/2 98/4/2
f 98/4/2 97/4/2 99/4/2
f 100/4/2 101/4/2 102/4/2
f 102/4/2 101/4/2 103/4/2
f 104/4/2 105/4/2 106/4/2
f 106/4/2 105/4/2 107/4/2
f 107/4/2 105/4/2 108/4/2
f 108/4/2 105/4/2 109/4/2
f 109/4/2 105/4/2 110/4/2
f 110/4/2 105/4/2 111/4/2
f 112/2/2 113/2/2 114/2/2
f 112/2/2 114/2/2 115/2/2
f 115/2/2 114/2/2 116/2/2
f 117/2/2 118/2/2 119/2/2
f 117/2/2 119/2/2 120/2/2
f 120/2/2 119/2/2 121/2/2
f 122/4/2 123/4/2 124/4/2
f 124/4/2 123/4/2 125/4/2
f 126/4/2 127/4/2 128/4/2
f 128/4/2 127/4/2 129/4/2
f 130/4/2 131/4/2 132/4/2
f 132/4/2 131/4/2 133/4/2
f 134/4/2 135/4/2 136/4/2
f 136/4/2 135/4/2 137/4/2
f 138/4/2 139/4/2 140/4/2
f 140/4/2 139/4/2 141/4/2
f 142/4/2 143/4/2 144/4/2
f 144/4/2 143/4/2 145/4/2
f 146/1/2 147/1/2 149/1/2
f 147/3/2 148/3/2 150/3/2
f 149/1/2 147/1/2 150/1/2
f 150/3/2 148/3/2 151/3/2
f 149/1/2 150/1/2 152/1/2
f 150/1/2 151/1/2 152/1/2
f 152/1/2 151/1/2 153/1/2
f 153/1/2 151/1/2 154/1/2
f 155/2/2 156/2/2 157/2/2
f 157/2/2 156/2/2 158/2/2
f 161/2/3 160/2/3 159/2/3
f 164/2/3 161/2/3 159/2/3
f 164/2/3 162/2/3 161/2/3
f 165/2/3 164/2/3 163/2/3
f 166/2/3 162/2/3 164/2/3
f 166/2/3 164/2/3 165/2/3
f 167/2/3 162/2/3 166/2/3
f 168/2/3 162/2/3 167/2/3
f 169/2/3 167/2/3 166/2/3
f 170/2/3 167/2/3 169/2/3
f 175/1/3 174/1/3 173/1/3
f 176/1/3 174/1/3 175/1/3
f 177/1/3 172/1/3 171/1/3
f 178/1/3 172/1/3 177/1/3
f 183/1/3 180/1/3 179/1/3
f 184/1/3 180/1/3 183/1/3
f 185/1/3 182/1/3 181/1/3
f 186/1/3 182/1/3 185/1/3
f 191/4/3 188/4/3 187/4/3
f 192/4/3 188/4/3 191/4/3
f 193/4/3 190/4/3 189/4/3
f 194/4/3 190/4/3 193/4/3
f 199/4/3 196/4/3 195/4/3
f 200/4/3 196/4/3 199/4/3
f 201/4/3 198/4/3 197/4/3
f 202/4/3 198/4/3 201/4/3
f 207/4/3 204/4/3 203/4/3
f 208/4/3 204/4/3 207/4/3
f 209/4/3 206/4/3 205/4/3
f 210/4/3 206/4/3 209/4/3
f 217/4/3 215/4/3 214/4/3
f 217/4/3 216/4/3 215/4/3
f 217/4/3 214/4/3 213/4/3
f 217/4/3 213/4/3 212/4/3
f 217/4/3 212/4/3 211/4/3
f 218/4/3 216/4/3 217/4/3
f 219/4/3 216/4/3 218/4/3
f 220/4/3 216/4/3 219/4/3
f 221/4/3 216/4/3 220/4/3
f 222/4/3 216/4/3 221/4/3
f 227/4/3 224/4/3 223/4/3
f 228/4/3 224/4/3 227/4/3
f 229/4/3 226/4/3 225/4/3
f 230/4/3 226/4/3 229/4/3
f 235/4/3 232/4/3 231/4/3
f 236/4/3 232/4/3 235/4/3
f 237/4/3 234/4/3 233/4/3
f 238/4/3 234/4/3 237/4/3
f 243/4/3 240/4/3 239/4/3
f 244/4/3 240/4/3 243/4/3
f 245/4/3 242/4/3 241/4/3
f 246/4/3 242/4/3 245/4/3
f 247/2/4 248/2/4 249/2/4
f 249/2/4 248/2/4 250/2/4
f 253/2/4 254/2/4 255/2/4
f 255/2/4 254/2/4 256/2/4
f 251/2/4 252/2/4 257/2/4
f 257/2/4 252/2/4 258/2/4
f 259/2/4 260/2/4 261/2/4
f 261/2/4 260/2/4 262/2/4
f 263/4/4 264/4/4 267/4/4
f 267/4/4 264/4/4 268/4/4
f 265/4/4 266/4/4 269/4/4
f 269/4/4 266/4/4 270/4/4
f 271/4/4 272/4/4 275/4/4
f 275/4/4 272/4/4 276/4/4
f 273/4/4 274/4/4 277/4/4
f 277/4/4 274/4/4 278/4/4
f 279/4/4 280/4/4 283/4/4
f 283/4/4 280/4/4 284/4/4
f 281/4/4 282/4/4 285/4/4
f 285/4/4 282/4/4 286/4/4
f 287/4/4 288/4/4 289/4/4
f 289/4/4 288/4/4 290/4/4
f 291/4/4 292/4/4 295/4/4
f 295/4/4 292/4/4 296/4/4
f 293/4/4 294/4/4 297/4/4
f 297/4/4 294/4/4 298/4/4
f 299/4/4 300/4/4 303/4/4
f 303/4/4 300/4/4 304/4/4
f 301/4/4 302/4/4 305/4/4
f 305/4/4 302/4/4 306/4/4
f 307/4/4 308/4/4 311/4/4
f 311/4/4 308/4/4 312/4/4
f 309/4/4 310/4/4 313/4/4
f 313/4/4 310/4/4 314/4/4
f 315/3/4 316/3/4 318/3/4
f 318/3/4 316/3/4 319/3/4
f 316/1/4 317/1/4 320/1/4
f 319/3/4 316/3/4 320/3/4
f 320/1/4 317/1/4 321/1/4
f 318/1/4 319/1/4 322/1/4
f 319/3/4 320/3/4 322/3/4
f 320/3/4 321/3/4 322/3/4
f 322/3/4 321/3/4 323/3/4
f 323/3/4 321/3/4 324/3/4
f 321/1/4 317/1/4 325/1/4
f 324/3/4 321/3/4 325/3/4
f 325/1/4 317/1/4 326/1/4
f 326/1/4 317/1/4 327/1/4
f 318/1/4 322/1/4 328/1/4
f 322/1/4 323/1/4 328/1/4
f 323/5/4 324/5/4 329/5/4
f 328/1/4 323/1/4 329/1/4
f 329/5/4 324/5/4 330/5/4
f 324/3/4 325/3/4 331/3/4
f 330/5/4 324/5/4 331/5/4
f 325/3/4 326/3/4 331/3/4
f 331/3/4 326/3/4 332/3/4
f 329/3/4 330/3/4 333/3/4
f 328/3/4 329/3/4 333/3/4
f 333/3/4 330/3/4 334/3/4
f 330/5/4 331/5/4 335/5/4
f 334/3/4 330/3/4 335/3/4
f 332/3/4 326/3/4 336/3/4
f 331/1/4 332/1/4 336/1/4
f 326/5/4 327/5/4 337/5/4
f 336/3/4 326/3/4 337/3/4
f 335/5/4 331/5/4 338/5/4
f 334/5/4 335/5/4 338/5/4
f 331/1/4 336/1/4 339/1/4
f 338/5/4 331/5/4 339/5/4
f 336/5/4 337/5/4 340/5/4
f 339/1/4 336/1/4 340/1/4
f 338/1/4 339/1/4 340/1/4
f 327/1/4 317/1/4 341/1/4
f 340/5/4 337/5/4 341/5/4
f 337/5/4 327/5/4 341/5/4
f 338/1/4 340/1/4 342/1/4
f 340/1/4 341/1/4 342/1/4
f 341/1/4 317/1/4 343/1/4
f 342/1/4 341/1/4 343/1/4
f 338/1/4 342/1/4 344/1/4
f 334/5/4 338/5/4 344/5/4
f 344/1/4 342/1/4 345/1/4
f 333/1/4 334/1/4 346/1/4
f 334/5/4 344/5/4 347/5/4
f 346/1/4 334/1/4 347/1/4
f 344/5/4 345/5/4 347/5/4
f 347/5/4 345/5/4 348/5/4
f 346/3/4 347/3/4 349/3/4
f 347/3/4 348/3/4 349/3/4
f 349/3/4 348/3/4 350/3/4
f 348/5/4 345/5/4 351/5/4
f 350/3/4 348/3/4 351/3/4
f 345/1/4 342/1/4 352/1/4
f 351/5/4 345/5/4 352/5/4
f 342/5/4 343/5/4 353/5/4
f 352/1/4 342/1/4 353/1/4
f 353/5/4 343/5/4 354/5/4
f 351/5/4 352/5/4 355/5/4
f 350/5/4 351/5/4 355/5/4
f 349/1/4 350/1/4 355/1/4
f 355/5/4 352/5/4 356/5/4
f 353/3/4 354/3/4 357/3/4
f 356/5/4 352/5/4 357/5/4
f 352/3/4 353/3/4 357/3/4
f 357/3/4 354/3/4 358/3/4
f 354/5/4 343/5/4 359/5/4
f 358/3/4 354/3/4 359/3/4
f 343/1/4 317/1/4 360/1/4
f 359/5/4 343/5/4 360/5/4
f 355/1/4 356/1/4 361/1/4
f 349/1/4 355/1/4 361/1/4
f 357/3/4 358/3/4 362/3/4
f 361/1/4 356/1/4 362/1/4
f 356/3/4 357/3/4 362/3/4
f 358/1/4 359/1/4 363/1/4
f 362/3/4 358/3/4 363/3/4
f 359/1/4 360/1/4 363/1/4
f 361/3/4 362/3/4 364/3/4
f 362/1/4 363/1/4 365/1/4
f 364/3/4 362/3/4 365/3/4
f 363/1/4 360/1/4 366/1/4
f 365/1/4 363/1/4 366/1/4
f 360/1/4 317/1/4 366/1/4
f 369/2/5 368/2/5 367/2/5
f 370/2/5 368/2/5 369/2/5
f 373/4/5 372/4/5 371/4/5
f 374/4/5 372/4/5 373/4/5
f 380/4/5 376/4/5 375/4/5
f 381/4/5 376/4/5 380/4/5
f 382/4/5 378/4/5 377/4/5
f 383/4/5 378/4/5 382/4/5
f 386/4/5 380/4/5 379/4/5
f 387/4/5 380/4/5 386/4/5
f 388/4/5 384/4/5 383/4/5
f 389/4/5 384/4/5 388/4/5
f 391/4/5 386/4/5 385/4/5
f 392/4/5 386/4/5 391/4/5
f 393/4/5 390/4/5 389/4/5
f 394/4/5 390/4/5 393/4/5
f 400/4/5 396/4/5 395/4/5
f 401/4/5 396/4/5 400/4/5
f 402/4/5 398/4/5 397/4/5
f 403/4/5 398/4/5 402/4/5
f 406/4/5 400/4/5 399/4/5
f 407/4/5 400/4/5 406/4/5
f 408/4/5 404/4/5 403/4/5
f 409/4/5 404/4/5 408/4/5
f 411/4/5 406/4/5 405/4/5
f 412/4/5 406/4/5 411/4/5
f 413/4/5 410/4/5 409/4/5
f 414/4/5 410/4/5 413/4/5
f 419/1/5 416/1/5 415/1/5
f 419/1/5 418/1/5 417/1/5
f 419/1/5 417/1/5 416/1/5
f 420/1/5 418/1/5 419/1/5
f 421/1/5 419/1/5 415/1/5
f 422/1/5 418/1/5 420/1/5
f 423/1/5 421/1/5 415/1/5
f 423/1/5 422/1/5 421/1/5
f 424/1/5 422/1/5 423/1/5
f 425/1/5 422/1/5 424/1/5
f 426/1/5 422/1/5 425/1/5
f 427/1/5 418/1/5 422/1/5
f 427/1/5 422/1/5 426/1/5
f 428/1/5 418/1/5 427/1/5
f 429/1/5 418/1/5 428/1/5
f 430/1/5 418/1/5 429/1/5
f 431/3/5 424/3/5 423/3/5
f 432/1/5 425/1/5 424/1/5
f 432/3/5 424/3/5 431/3/5
f 433/3/5 426/3/5 425/3/5
f 433/1/5 425/1/5 432/1/5
f 434/1/5 427/1/5 426/1/5
f 434/3/5 426/3/5 433/3/5
f 435/3/5 428/3/5 427/3/5
f 435/1/5 427/1/5 434/1/5
f 436/1/5 429/1/5 428/1/5
f 436/3/5 428/3/5 435/3/5
f 437/3/5 430/3/5 429/3/5
f 437/1/5 429/1/5 436/1/5
f 438/3/5 430/3/5 437/3/5
f 443/2/5 440/2/5 439/2/5
f 444/2/5 440/2/5 443/2/5
f 445/2/5 440/2/5 444/2/5
f 446/2/5 442/2/5 441/2/5
f 447/2/5 442/2/5 446/2/5
f 448/2/5 442/2/5 447/2/5
f 449/4/6 450/4/6 454/4/6
f 454/4/6 450/4/6 455/4/6
f 451/4/6 452/4/6 456/4/6
f 456/4/6 452/4/6 457/4/6
f 453/4/6 454/4/6 460/4/6
f 460/4/6 454/4/6 461/4/6
f 457/4/6 458/4/6 462/4/6
f 462/4/6 458/4/6 463/4/6
f 459/4/6 460/4/6 465/4/6
f 465/4/6 460/4/6 466/4/6
f 463/4/6 464/4/6 467/4/6
f 467/4/6 464/4/6 468/4/6
f 469/4/6 470/4/6 474/4/6
f 474/4/6 470/4/6 475/4/6
f 471/4/6 472/4/6 476/4/6
f 476/4/6 472/4/6 477/4/6
f 473/4/6 474/4/6 480/4/6
f 480/4/6 474/4/6 481/4/6
f 477/4/6 478/4/6 482/4/6
f 482/4/6 478/4/6 483/4/6
f 479/4/6 480/4/6 485/4/6
f 485/4/6 480/4/6 486/4/6
f 483/4/6 484/4/6 487/4/6
f 487/4/6 484/4/6 488/4/6
f 489/2/6 490/2/6 493/2/6
f 493/2/6 490/2/6 494/2/6
f 494/2/6 490/2/6 495/2/6
f 491/2/6 492/2/6 496/2/6
f 496/2/6 492/2/6 497/2/6
f 497/2/6 492/2/6 498/2/6
f 499/1/6 500/1/6 503/1/6
f 501/1/6 502/1/6 503/1/6
f 500/1/6 501/1/6 503/1/6
f 503/1/6 502/1/6 504/1/6
f 505/2/6 506/2/6 507/2/6
f 507/2/6 506/2/6 508/2/6
