# MagicaVoxel @ Ephtracy

# group
o 

# material
mtllib MENU.mtl
usemtl palette

# normals
vn -1 0 0
vn 1 0 0
vn 0 0 1
vn 0 0 -1
vn 0 -1 0
vn 0 1 0

# texcoords
vt 0.0175781 0.5
vt 0.0410156 0.5
vt 0.0449219 0.5

# verts
v -1.2 0 0.4
v -1.2 0 0.3
v -1.2 0.2 0.4
v -1.2 0.2 0.3
v -1.2 0.3 0.4
v -1.2 0.3 0.3
v -1.2 0.4 0.4
v -1.2 0.4 0.3
v -1.2 0.5 0.4
v -1.2 0.5 0.3
v -1.2 0.6 0.4
v -1.2 0.6 0.3
v -1.2 0.7 0.4
v -1.2 0.7 0.3
v -1.2 0.8 0.4
v -1.2 0.8 0.3
v -1.2 0.9 0.4
v -1.2 0.9 0.3
v -0.8 0.9 0.4
v -0.8 0.9 0.3
v -0.8 1.1 0.4
v -0.8 1.1 0.3
v -0.8 1.2 0.4
v -0.8 1.2 0.3
v -0.8 1.7 0.4
v -0.8 1.7 0.3
v -0.8 1.8 0.4
v -0.8 1.8 0.3
v -0.8 2.2 0.4
v -0.8 2.2 0.3
v -0.3 0.1 0.4
v -0.3 0.1 0.3
v -0.3 0.2 0.4
v -0.3 0.2 0.3
v -0.3 0.3 0.4
v -0.3 0.3 0.3
v -0.3 0.6 0.4
v -0.3 0.6 0.3
v -0.3 0.7 0.4
v -0.3 0.7 0.3
v -0.3 0.8 0.4
v -0.3 0.8 0.3
v -1.1 0.1 0.4
v -1.1 0.1 0.3
v -1.1 0.2 0.4
v -1.1 0.2 0.3
v -1.1 0.3 0.4
v -1.1 0.3 0.3
v -1.1 0.4 0.4
v -1.1 0.4 0.3
v -1.1 0.5 0.4
v -1.1 0.5 0.3
v -1.1 0.6 0.4
v -1.1 0.6 0.3
v -1.1 0.7 0.4
v -1.1 0.7 0.3
v -1.1 0.8 0.4
v -1.1 0.8 0.3
v -0.6 0.9 0.4
v -0.6 0.9 0.3
v -0.6 1.3 0.4
v -0.6 1.3 0.3
v -0.6 1.4 0.4
v -0.6 1.4 0.3
v -0.6 1.6 0.4
v -0.6 1.6 0.3
v -0.6 1.7 0.4
v -0.6 1.7 0.3
v -0.6 2.2 0.4
v -0.6 2.2 0.3
v -0.2 0 0.4
v -0.2 0 0.3
v -0.2 0.1 0.4
v -0.2 0.1 0.3
v -0.2 0.2 0.4
v -0.2 0.2 0.3
v -0.2 0.3 0.4
v -0.2 0.3 0.3
v -0.2 0.6 0.4
v -0.2 0.6 0.3
v -0.2 0.7 0.4
v -0.2 0.7 0.3
v -0.2 0.8 0.4
v -0.2 0.8 0.3
v -0.2 0.9 0.4
v -0.2 0.9 0.3
v -1.2 0 0.4
v -1.2 0.2 0.4
v -1.2 0.3 0.4
v -1.2 0.4 0.4
v -1.2 0.5 0.4
v -1.2 0.6 0.4
v -1.2 0.7 0.4
v -1.2 0.8 0.4
v -1.2 0.9 0.4
v -1.1 0.1 0.4
v -1.1 0.2 0.4
v -1.1 0.3 0.4
v -1.1 0.4 0.4
v -1.1 0.5 0.4
v -1.1 0.6 0.4
v -1.1 0.7 0.4
v -1.1 0.8 0.4
v -1.1 0.9 0.4
v -1 0 0.4
v -1 0.1 0.4
v -0.9 0 0.4
v -0.9 0.1 0.4
v -0.9 0.8 0.4
v -0.9 0.9 0.4
v -0.8 0 0.4
v -0.8 0.1 0.4
v -0.8 0.8 0.4
v -0.8 0.9 0.4
v -0.8 1.1 0.4
v -0.8 1.2 0.4
v -0.8 1.7 0.4
v -0.8 1.8 0.4
v -0.8 2.2 0.4
v -0.7 0 0.4
v -0.7 0.1 0.4
v -0.7 0.8 0.4
v -0.7 0.9 0.4
v -0.7 1.1 0.4
v -0.7 1.2 0.4
v -0.7 1.3 0.4
v -0.7 1.4 0.4
v -0.7 1.6 0.4
v -0.7 1.7 0.4
v -0.7 1.8 0.4
v -0.6 0 0.4
v -0.6 0.1 0.4
v -0.6 0.9 0.4
v -0.6 1.3 0.4
v -0.6 1.4 0.4
v -0.6 1.6 0.4
v -0.6 1.7 0.4
v -0.6 2.2 0.4
v -0.5 0.8 0.4
v -0.5 0.9 0.4
v -0.4 0 0.4
v -0.4 0.1 0.4
v -0.4 0.8 0.4
v -0.4 0.9 0.4
v -0.3 0 0.4
v -0.3 0.1 0.4
v -0.3 0.2 0.4
v -0.3 0.3 0.4
v -0.3 0.6 0.4
v -0.3 0.7 0.4
v -0.3 0.8 0.4
v -0.2 0 0.4
v -0.2 0.1 0.4
v -0.2 0.2 0.4
v -0.2 0.3 0.4
v -0.2 0.6 0.4
v -0.2 0.7 0.4
v -0.2 0.8 0.4
v -0.2 0.9 0.4
v -1.2 0 0.3
v -1.2 0.2 0.3
v -1.2 0.3 0.3
v -1.2 0.4 0.3
v -1.2 0.5 0.3
v -1.2 0.6 0.3
v -1.2 0.7 0.3
v -1.2 0.8 0.3
v -1.2 0.9 0.3
v -1.1 0.1 0.3
v -1.1 0.2 0.3
v -1.1 0.3 0.3
v -1.1 0.4 0.3
v -1.1 0.5 0.3
v -1.1 0.6 0.3
v -1.1 0.7 0.3
v -1.1 0.8 0.3
v -1.1 0.9 0.3
v -1 0 0.3
v -1 0.1 0.3
v -0.9 0 0.3
v -0.9 0.1 0.3
v -0.9 0.8 0.3
v -0.9 0.9 0.3
v -0.8 0 0.3
v -0.8 0.1 0.3
v -0.8 0.8 0.3
v -0.8 0.9 0.3
v -0.8 1.1 0.3
v -0.8 1.2 0.3
v -0.8 1.7 0.3
v -0.8 1.8 0.3
v -0.8 2.2 0.3
v -0.7 0 0.3
v -0.7 0.1 0.3
v -0.7 0.8 0.3
v -0.7 0.9 0.3
v -0.7 1.1 0.3
v -0.7 1.2 0.3
v -0.7 1.3 0.3
v -0.7 1.4 0.3
v -0.7 1.6 0.3
v -0.7 1.7 0.3
v -0.7 1.8 0.3
v -0.6 0 0.3
v -0.6 0.1 0.3
v -0.6 0.9 0.3
v -0.6 1.3 0.3
v -0.6 1.4 0.3
v -0.6 1.6 0.3
v -0.6 1.7 0.3
v -0.6 2.2 0.3
v -0.5 0.8 0.3
v -0.5 0.9 0.3
v -0.4 0 0.3
v -0.4 0.1 0.3
v -0.4 0.8 0.3
v -0.4 0.9 0.3
v -0.3 0 0.3
v -0.3 0.1 0.3
v -0.3 0.2 0.3
v -0.3 0.3 0.3
v -0.3 0.6 0.3
v -0.3 0.7 0.3
v -0.3 0.8 0.3
v -0.2 0 0.3
v -0.2 0.1 0.3
v -0.2 0.2 0.3
v -0.2 0.3 0.3
v -0.2 0.6 0.3
v -0.2 0.7 0.3
v -0.2 0.8 0.3
v -0.2 0.9 0.3
v -1.2 0 0.4
v -1 0 0.4
v -0.9 0 0.4
v -0.8 0 0.4
v -0.7 0 0.4
v -0.6 0 0.4
v -0.4 0 0.4
v -0.3 0 0.4
v -0.2 0 0.4
v -1.2 0 0.3
v -1 0 0.3
v -0.9 0 0.3
v -0.8 0 0.3
v -0.7 0 0.3
v -0.6 0 0.3
v -0.4 0 0.3
v -0.3 0 0.3
v -0.2 0 0.3
v -1.1 0.8 0.4
v -0.9 0.8 0.4
v -0.8 0.8 0.4
v -0.7 0.8 0.4
v -0.5 0.8 0.4
v -0.4 0.8 0.4
v -0.3 0.8 0.4
v -1.1 0.8 0.3
v -0.9 0.8 0.3
v -0.8 0.8 0.3
v -0.7 0.8 0.3
v -0.5 0.8 0.3
v -0.4 0.8 0.3
v -0.3 0.8 0.3
v -1.1 0.1 0.4
v -1 0.1 0.4
v -0.9 0.1 0.4
v -0.8 0.1 0.4
v -0.7 0.1 0.4
v -0.6 0.1 0.4
v -0.4 0.1 0.4
v -0.3 0.1 0.4
v -1.1 0.1 0.3
v -1 0.1 0.3
v -0.9 0.1 0.3
v -0.8 0.1 0.3
v -0.7 0.1 0.3
v -0.6 0.1 0.3
v -0.4 0.1 0.3
v -0.3 0.1 0.3
v -1.2 0.9 0.4
v -1.1 0.9 0.4
v -0.9 0.9 0.4
v -0.8 0.9 0.4
v -0.6 0.9 0.4
v -0.5 0.9 0.4
v -0.4 0.9 0.4
v -0.2 0.9 0.4
v -1.2 0.9 0.3
v -1.1 0.9 0.3
v -0.9 0.9 0.3
v -0.8 0.9 0.3
v -0.6 0.9 0.3
v -0.5 0.9 0.3
v -0.4 0.9 0.3
v -0.2 0.9 0.3
v -0.8 2.2 0.4
v -0.6 2.2 0.4
v -0.8 2.2 0.3
v -0.6 2.2 0.3

# faces
f 3/1/1 2/1/1 1/1/1
f 4/1/1 2/1/1 3/1/1
f 5/3/1 4/3/1 3/3/1
f 6/3/1 4/3/1 5/3/1
f 7/1/1 6/1/1 5/1/1
f 8/1/1 6/1/1 7/1/1
f 9/2/1 8/2/1 7/2/1
f 10/2/1 8/2/1 9/2/1
f 11/1/1 10/1/1 9/1/1
f 12/1/1 10/1/1 11/1/1
f 13/3/1 12/3/1 11/3/1
f 14/3/1 12/3/1 13/3/1
f 15/1/1 14/1/1 13/1/1
f 16/1/1 14/1/1 15/1/1
f 17/3/1 16/3/1 15/3/1
f 18/3/1 16/3/1 17/3/1
f 21/3/1 20/3/1 19/3/1
f 22/3/1 20/3/1 21/3/1
f 23/1/1 22/1/1 21/1/1
f 24/1/1 22/1/1 23/1/1
f 25/3/1 24/3/1 23/3/1
f 26/3/1 24/3/1 25/3/1
f 27/1/1 26/1/1 25/1/1
f 28/1/1 26/1/1 27/1/1
f 29/3/1 28/3/1 27/3/1
f 30/3/1 28/3/1 29/3/1
f 33/1/1 32/1/1 31/1/1
f 34/1/1 32/1/1 33/1/1
f 35/3/1 34/3/1 33/3/1
f 36/3/1 34/3/1 35/3/1
f 37/1/1 36/1/1 35/1/1
f 38/1/1 36/1/1 37/1/1
f 39/3/1 38/3/1 37/3/1
f 40/3/1 38/3/1 39/3/1
f 41/1/1 40/1/1 39/1/1
f 42/1/1 40/1/1 41/1/1
f 43/1/2 44/1/2 45/1/2
f 45/1/2 44/1/2 46/1/2
f 45/3/2 46/3/2 47/3/2
f 47/3/2 46/3/2 48/3/2
f 47/1/2 48/1/2 49/1/2
f 49/1/2 48/1/2 50/1/2
f 49/2/2 50/2/2 51/2/2
f 51/2/2 50/2/2 52/2/2
f 51/1/2 52/1/2 53/1/2
f 53/1/2 52/1/2 54/1/2
f 53/3/2 54/3/2 55/3/2
f 55/3/2 54/3/2 56/3/2
f 55/1/2 56/1/2 57/1/2
f 57/1/2 56/1/2 58/1/2
f 59/3/2 60/3/2 61/3/2
f 61/3/2 60/3/2 62/3/2
f 61/1/2 62/1/2 63/1/2
f 63/1/2 62/1/2 64/1/2
f 63/3/2 64/3/2 65/3/2
f 65/3/2 64/3/2 66/3/2
f 65/1/2 66/1/2 67/1/2
f 67/1/2 66/1/2 68/1/2
f 67/3/2 68/3/2 69/3/2
f 69/3/2 68/3/2 70/3/2
f 71/3/2 72/3/2 73/3/2
f 73/3/2 72/3/2 74/3/2
f 73/1/2 74/1/2 75/1/2
f 75/1/2 74/1/2 76/1/2
f 75/3/2 76/3/2 77/3/2
f 77/3/2 76/3/2 78/3/2
f 77/1/2 78/1/2 79/1/2
f 79/1/2 78/1/2 80/1/2
f 79/3/2 80/3/2 81/3/2
f 81/3/2 80/3/2 82/3/2
f 81/1/2 82/1/2 83/1/2
f 83/1/2 82/1/2 84/1/2
f 83/3/2 84/3/2 85/3/2
f 85/3/2 84/3/2 86/3/2
f 96/1/3 88/1/3 87/1/3
f 97/3/3 89/3/3 88/3/3
f 97/1/3 88/1/3 96/1/3
f 98/1/3 90/1/3 89/1/3
f 98/3/3 89/3/3 97/3/3
f 99/2/3 91/2/3 90/2/3
f 99/1/3 90/1/3 98/1/3
f 100/1/3 92/1/3 91/1/3
f 100/2/3 91/2/3 99/2/3
f 101/3/3 93/3/3 92/3/3
f 101/1/3 92/1/3 100/1/3
f 102/1/3 94/1/3 93/1/3
f 102/3/3 93/3/3 101/3/3
f 103/3/3 95/3/3 94/3/3
f 103/1/3 94/1/3 102/1/3
f 104/3/3 95/3/3 103/3/3
f 105/1/3 96/1/3 87/1/3
f 106/1/3 96/1/3 105/1/3
f 107/3/3 106/3/3 105/3/3
f 108/3/3 106/3/3 107/3/3
f 109/1/3 104/1/3 103/1/3
f 110/1/3 104/1/3 109/1/3
f 111/1/3 108/1/3 107/1/3
f 112/1/3 108/1/3 111/1/3
f 113/3/3 110/3/3 109/3/3
f 114/3/3 110/3/3 113/3/3
f 120/3/3 112/3/3 111/3/3
f 121/3/3 112/3/3 120/3/3
f 122/1/3 114/1/3 113/1/3
f 123/3/3 115/3/3 114/3/3
f 123/1/3 114/1/3 122/1/3
f 124/1/3 116/1/3 115/1/3
f 124/3/3 115/3/3 123/3/3
f 125/3/3 117/3/3 116/3/3
f 125/1/3 116/1/3 124/1/3
f 126/3/3 117/3/3 125/3/3
f 127/3/3 117/3/3 126/3/3
f 128/3/3 117/3/3 127/3/3
f 129/1/3 118/1/3 117/1/3
f 129/3/3 117/3/3 128/3/3
f 130/3/3 119/3/3 118/3/3
f 130/1/3 118/1/3 129/1/3
f 131/1/3 121/1/3 120/1/3
f 132/1/3 121/1/3 131/1/3
f 133/3/3 123/3/3 122/3/3
f 133/3/3 124/3/3 123/3/3
f 133/3/3 125/3/3 124/3/3
f 133/3/3 126/3/3 125/3/3
f 134/1/3 127/1/3 126/1/3
f 134/3/3 126/3/3 133/3/3
f 135/3/3 128/3/3 127/3/3
f 135/1/3 127/1/3 134/1/3
f 136/1/3 129/1/3 128/1/3
f 136/3/3 128/3/3 135/3/3
f 137/3/3 130/3/3 129/3/3
f 137/1/3 129/1/3 136/1/3
f 138/3/3 119/3/3 130/3/3
f 138/3/3 130/3/3 137/3/3
f 139/3/3 133/3/3 122/3/3
f 140/3/3 133/3/3 139/3/3
f 141/3/3 132/3/3 131/3/3
f 142/3/3 132/3/3 141/3/3
f 143/1/3 140/1/3 139/1/3
f 144/1/3 140/1/3 143/1/3
f 145/1/3 142/1/3 141/1/3
f 146/1/3 142/1/3 145/1/3
f 151/3/3 144/3/3 143/3/3
f 152/3/3 146/3/3 145/3/3
f 153/1/3 147/1/3 146/1/3
f 153/3/3 146/3/3 152/3/3
f 154/3/3 148/3/3 147/3/3
f 154/1/3 147/1/3 153/1/3
f 155/1/3 149/1/3 148/1/3
f 155/3/3 148/3/3 154/3/3
f 156/3/3 150/3/3 149/3/3
f 156/1/3 149/1/3 155/1/3
f 157/1/3 151/1/3 150/1/3
f 157/3/3 150/3/3 156/3/3
f 158/3/3 144/3/3 151/3/3
f 158/1/3 151/1/3 157/1/3
f 159/3/3 144/3/3 158/3/3
f 160/1/4 161/1/4 169/1/4
f 161/3/4 162/3/4 170/3/4
f 169/1/4 161/1/4 170/1/4
f 162/1/4 163/1/4 171/1/4
f 170/3/4 162/3/4 171/3/4
f 163/2/4 164/2/4 172/2/4
f 171/1/4 163/1/4 172/1/4
f 164/1/4 165/1/4 173/1/4
f 172/2/4 164/2/4 173/2/4
f 165/3/4 166/3/4 174/3/4
f 173/1/4 165/1/4 174/1/4
f 166/1/4 167/1/4 175/1/4
f 174/3/4 166/3/4 175/3/4
f 167/3/4 168/3/4 176/3/4
f 175/1/4 167/1/4 176/1/4
f 176/3/4 168/3/4 177/3/4
f 160/1/4 169/1/4 178/1/4
f 178/1/4 169/1/4 179/1/4
f 178/3/4 179/3/4 180/3/4
f 180/3/4 179/3/4 181/3/4
f 176/1/4 177/1/4 182/1/4
f 182/1/4 177/1/4 183/1/4
f 180/1/4 181/1/4 184/1/4
f 184/1/4 181/1/4 185/1/4
f 182/3/4 183/3/4 186/3/4
f 186/3/4 183/3/4 187/3/4
f 184/3/4 185/3/4 193/3/4
f 193/3/4 185/3/4 194/3/4
f 186/1/4 187/1/4 195/1/4
f 187/3/4 188/3/4 196/3/4
f 195/1/4 187/1/4 196/1/4
f 188/1/4 189/1/4 197/1/4
f 196/3/4 188/3/4 197/3/4
f 189/3/4 190/3/4 198/3/4
f 197/1/4 189/1/4 198/1/4
f 198/3/4 190/3/4 199/3/4
f 199/3/4 190/3/4 200/3/4
f 200/3/4 190/3/4 201/3/4
f 190/1/4 191/1/4 202/1/4
f 201/3/4 190/3/4 202/3/4
f 191/3/4 192/3/4 203/3/4
f 202/1/4 191/1/4 203/1/4
f 193/1/4 194/1/4 204/1/4
f 204/1/4 194/1/4 205/1/4
f 195/3/4 196/3/4 206/3/4
f 196/3/4 197/3/4 206/3/4
f 197/3/4 198/3/4 206/3/4
f 198/3/4 199/3/4 206/3/4
f 199/1/4 200/1/4 207/1/4
f 206/3/4 199/3/4 207/3/4
f 200/3/4 201/3/4 208/3/4
f 207/1/4 200/1/4 208/1/4
f 201/1/4 202/1/4 209/1/4
f 208/3/4 201/3/4 209/3/4
f 202/3/4 203/3/4 210/3/4
f 209/1/4 202/1/4 210/1/4
f 203/3/4 192/3/4 211/3/4
f 210/3/4 203/3/4 211/3/4
f 195/3/4 206/3/4 212/3/4
f 212/3/4 206/3/4 213/3/4
f 204/3/4 205/3/4 214/3/4
f 214/3/4 205/3/4 215/3/4
f 212/1/4 213/1/4 216/1/4
f 216/1/4 213/1/4 217/1/4
f 214/1/4 215/1/4 218/1/4
f 218/1/4 215/1/4 219/1/4
f 216/3/4 217/3/4 224/3/4
f 218/3/4 219/3/4 225/3/4
f 219/1/4 220/1/4 226/1/4
f 225/3/4 219/3/4 226/3/4
f 220/3/4 221/3/4 227/3/4
f 226/1/4 220/1/4 227/1/4
f 221/1/4 222/1/4 228/1/4
f 227/3/4 221/3/4 228/3/4
f 222/3/4 223/3/4 229/3/4
f 228/1/4 222/1/4 229/1/4
f 223/1/4 224/1/4 230/1/4
f 229/3/4 223/3/4 230/3/4
f 224/3/4 217/3/4 231/3/4
f 230/1/4 224/1/4 231/1/4
f 231/3/4 217/3/4 232/3/4
f 242/1/5 234/1/5 233/1/5
f 243/3/5 235/3/5 234/3/5
f 243/1/5 234/1/5 242/1/5
f 244/1/5 236/1/5 235/1/5
f 244/3/5 235/3/5 243/3/5
f 245/3/5 237/3/5 236/3/5
f 245/1/5 236/1/5 244/1/5
f 246/1/5 238/1/5 237/1/5
f 246/3/5 237/3/5 245/3/5
f 247/3/5 239/3/5 238/3/5
f 247/1/5 238/1/5 246/1/5
f 248/1/5 240/1/5 239/1/5
f 248/3/5 239/3/5 247/3/5
f 249/3/5 241/3/5 240/3/5
f 249/1/5 240/1/5 248/1/5
f 250/3/5 241/3/5 249/3/5
f 258/1/5 252/1/5 251/1/5
f 259/3/5 253/3/5 252/3/5
f 259/1/5 252/1/5 258/1/5
f 260/1/5 254/1/5 253/1/5
f 260/3/5 253/3/5 259/3/5
f 261/3/5 255/3/5 254/3/5
f 261/1/5 254/1/5 260/1/5
f 262/1/5 256/1/5 255/1/5
f 262/3/5 255/3/5 261/3/5
f 263/3/5 257/3/5 256/3/5
f 263/1/5 256/1/5 262/1/5
f 264/3/5 257/3/5 263/3/5
f 265/1/6 266/1/6 273/1/6
f 266/3/6 267/3/6 274/3/6
f 273/1/6 266/1/6 274/1/6
f 267/1/6 268/1/6 275/1/6
f 274/3/6 267/3/6 275/3/6
f 268/3/6 269/3/6 276/3/6
f 275/1/6 268/1/6 276/1/6
f 269/1/6 270/1/6 277/1/6
f 276/3/6 269/3/6 277/3/6
f 270/3/6 271/3/6 278/3/6
f 277/1/6 270/1/6 278/1/6
f 271/1/6 272/1/6 279/1/6
f 278/3/6 271/3/6 279/3/6
f 279/1/6 272/1/6 280/1/6
f 281/3/6 282/3/6 289/3/6
f 282/1/6 283/1/6 290/1/6
f 289/3/6 282/3/6 290/3/6
f 283/3/6 284/3/6 291/3/6
f 290/1/6 283/1/6 291/1/6
f 291/3/6 284/3/6 292/3/6
f 285/3/6 286/3/6 293/3/6
f 286/1/6 287/1/6 294/1/6
f 293/3/6 286/3/6 294/3/6
f 287/3/6 288/3/6 295/3/6
f 294/1/6 287/1/6 295/1/6
f 295/3/6 288/3/6 296/3/6
f 297/3/6 298/3/6 299/3/6
f 299/3/6 298/3/6 300/3/6
